<svg version="1.2" xmlns="http://www.w3.org/2000/svg" viewBox="0 0 1000 1000" width="1000" height="1000">
	<title>6424939-ai</title>
	<style>
		tspan { white-space:pre } 
		.t0 { font-size: 35px;line-height: 38px;text-transform: uppercase;fill: #001258;font-weight: 400;font-family: "Pangolin-Regular", "Pangolin" } 
		.s1 { fill: #2b2ceb } 
		.t2 { font-size: 5px;line-height: 11px;text-transform: uppercase;fill: #f6f6f6;font-weight: 300;font-family: "Montserrat-Light", "Montserrat" } 
	</style>
	<g id="BACKGROUND">
	</g>
	<g id="OBJECTS">
		<g id="&lt;Group&gt;">
			<g id="&lt;Group&gt;">
				<g id="&lt;Group&gt;">
				</g>
			</g>
			<text id="icare" style="transform: matrix(2,0,0,2,415.162,333.305)" >
				<tspan x="0" y="0" class="t0" dx="0" >I</tspan><tspan  y="0" class="t0" dx="0" >C</tspan><tspan  y="0" class="t0" dx="0" >A</tspan><tspan  y="0" class="t0" dx="0" >R</tspan><tspan  y="0" class="t0" dx="0 4" >E
</tspan>
			</text>
			<path id="&lt;Compound Path&gt;" fill-rule="evenodd" class="s1" d="m397.9 297.4c0.1 1.8-0.6 3.7-2.1 5.3-1.1 1.2-2.4 2-3.5 2.6-1 0.5-2.1 0.9-3.1 1.4l-3.8 1.5c-0.8 0.3-1.6 0.6-2.4 1q-0.1 0.1-0.1 0.1 0 0 0 0 0 0.6 0 1.3c0.2 1.4 0.5 2.9 0.8 4.2q0.6 2.5 1.2 4.9 0.6 2.1 1.1 4.2c0.6 2.5 1.4 5.9 1.9 9.4 0.5 3.8 0.6 6.8 0.3 9.5q-0.3 2.4-1.2 4.8-0.9 2.5-2.4 4.4-0.8 1-1.8 1.9c-0.5 0.6-1.2 1.1-2 1.7q-2 1.4-4.3 2.4c-2.8 1.2-6 2-9.9 2.3-3.4 0.3-6.7 0.2-9.7 0.1-3.2-0.1-6.5-0.3-9.7-0.5l-2.3-0.2q-2.9-0.2-5.8-0.4h-0.4q-1 0-1.9 0 0 0.1-0.1 0.1c0 0.2-0.1 0.4-0.2 0.6-0.3 1.2-0.6 2.5-0.8 3.6-0.5 2.9-0.8 5.9-1.2 8.9v0.5c-0.3 2.6-0.6 5.4-0.8 9.1l-0.3 4.5c-0.1 1.2-0.2 2.3-0.3 3.4-0.2 1.4-1.4 2.5-2.7 2.5l-0.3-0.1c-0.7 0-1.4-0.4-1.9-1-0.4-0.6-0.6-1.3-0.5-2 0.1-1.2 0.2-2.5 0.3-3.8l0.4-5.2c0.2-3.1 0.5-6.2 0.8-9.4 0.4-3.1 0.8-6.4 1.4-9.7q0.2-1.2 0.6-2.4 0.3-1.4 1-2.5 0.8-1.5 2.2-2.1c0.8-0.4 1.6-0.5 2.2-0.5q1.1 0.1 2.2 0.1c2.4 0.1 4.7 0.2 7 0.4l2 0.1q4.5 0.4 9.1 0.6 2.5 0.1 4.9 0.1c1.6 0 3.2-0.1 4.8-0.2q2-0.2 4-0.7 1.3-0.3 2.5-0.7 1.1-0.4 2.4-1 1-0.6 2.1-1.3 0.7-0.6 1.5-1.2 0.4-0.4 0.9-0.9 0.4-0.6 0.8-1.2 0.4-0.5 0.7-1.2 0.4-0.9 0.7-1.9 0.3-0.9 0.5-1.8 0.2-1.1 0.2-2.3 0.1-1.9-0.1-4.2c-0.3-2.7-0.8-5.6-1.5-9.1-0.6-2.5-1.3-5.1-2-7.6l-0.4-1.6q-0.6-2.4-1.1-4.7c-0.2-1.5-0.5-3.3-0.3-5.1 0.1-1 0.5-2 1.2-2.7 0.3-0.4 0.8-0.7 1.4-1.1 0.9-0.5 1.9-0.9 2.9-1.3l0.4-0.2q0.8-0.3 1.7-0.7c1.7-0.6 3.5-1.3 5.1-2.2q0.4-0.2 0.9-0.5c0.1-0.1 0.3-0.2 0.4-0.4q0.2-0.2 0.4-0.4c0.1-0.1 0.2-0.3 0.3-0.4l0.3-0.5 1-0.3-1 0.1-0.1-0.3c0 0 0-0.2-0.1-0.3q-0.1-0.4-0.4-0.8c-1.4-2.7-3.1-5.2-4.7-7.6q-2.7-4-5.4-8l-3.1-4.4q-1.4-1.9-2.8-3.8l-0.9-1.1q-0.9-1.4-1.9-2.7c-2.3-3-4.3-5.5-6.2-7.6l-1.3-1.4q-1.5-1.7-3-3.2c-1-1-2.1-1.9-3.1-2.8-2.9-2.4-5.4-4.3-7.9-5.9-1.6-1-3.2-2-5-3.1-2-1.1-3.7-2.1-5.4-2.9-1.6-0.7-3.2-1.3-4.8-1.8l-0.9-0.3c-1.8-0.6-3.6-1-5.4-1.4-1.6-0.2-3.3-0.5-5.1-0.7-1.8-0.2-3.6-0.3-5.3-0.3-3.6-0.2-6.6-0.1-9.5 0.1q-1.9 0.2-3.8 0.4c-1.2 0.2-2.5 0.4-4 0.8q-1.4 0.3-2.8 0.7-1.4 0.4-2.7 0.9l-0.4 0.1c-0.9 0.4-1.8 0.7-2.8 1.2q-1.6 0.7-3.3 1.6-1.1 0.6-2.2 1.2-0.9 0.6-1.8 1.2l-0.4 0.2q-1.2 0.9-2.5 1.9-1.2 1-2.3 2.1-1.2 1.1-2.4 2.3-1.1 1.2-2.2 2.5c-0.8 1-1.7 2.1-2.5 3.2q-1.2 1.7-2.3 3.4-0.9 1.5-1.8 3-0.8 1.6-1.6 3.3-0.9 1.9-1.7 3.8c-0.5 1.3-0.9 2.6-1.4 3.9-0.7 2.3-1.2 4.4-1.6 6.5-0.3 2.2-0.6 4.5-0.7 7.1 0 1.2-0.1 2.5 0 3.7q0 1.9 0.2 3.9 0.2 1.6 0.4 3.2 0.3 1.4 0.6 2.9c0.5 2.1 1 3.8 1.6 5.5q0.4 1 0.9 2.1 0.5 1 1 2.1c0.6 1 1.1 1.8 1.6 2.6q1.4 1.9 3.1 3.8 0.6 0.7 1.3 1.3 0.5 0.5 1 1 1 0.8 2.1 1.5c0.9 0.6 1.9 1.1 2.9 1.6q1.1 0.5 2.2 0.9 0.7 0.2 1.4 0.4 0.8 0.2 1.6 0.3 1.1 0.2 2.4 0.3c1.1 0 2.3-0.1 3.2-0.1q1.7-0.2 3-0.5 1.7-0.4 3.1-0.9 1.6-0.6 3.1-1.3 1.3-0.8 2.6-1.6 0.3-0.2 0.6-0.5-0.2-0.2-0.5-0.4c-0.4-0.6-1.1-1.3-1.6-2.2-0.5-0.8-0.9-1.6-1.2-2.4-0.7-1.6-1.1-3.5-1.1-5.5q-0.1-2.6 0.5-5.2 0.6-2.7 1.8-4.9 0.7-1.2 1.5-2.2 1.1-1.3 2.2-2 0.5-0.3 1-0.6c0.5-0.2 0.9-0.3 1.4-0.3 0.6-0.2 1.2-0.2 1.9-0.1 1.7 0.1 3.5 1.1 4.7 2.6q0.8 1 1.4 2.4c0.5 0.9 0.7 1.8 0.9 2.7 0.4 1.9 0.3 3.7 0.2 5.3 0 0.9-0.2 1.9-0.4 2.7q-0.3 1.3-0.7 2.5c-0.3 1-0.6 1.7-0.9 2.4q-0.6 1.2-1.3 2.4-0.7 1.1-1.5 2.1 0.4 0.2 0.8 0.4 1.2 0.5 2.4 0.9 1.9 0.6 4.3 1.1 1.8 0.2 4 0.4 1.1 0 2.4 0 1.3-0.1 2.6-0.1 0.9-0.1 1.7-0.2 0.8-0.2 1.5-0.3 0.8-0.2 1.7-0.5 0.6-0.2 1.2-0.4l0.5-0.1q0.5-0.2 1-0.5 0.6-0.2 1.2-0.5 1-0.6 2.1-1.4c0.3-0.2 0.7-0.4 1-0.7q0.5-0.5 1-1l0.8-0.7q0.3-0.3 0.6-0.6l0.2-0.3q0.5-0.5 1-1.1 0.5-0.7 1-1.5l0.5-0.9q0.2-0.3 0.4-0.6l0.5-1.1q0.1-0.3 0.2-0.7l0.2-0.3q0.1-0.6 0.3-1.2 0.2-0.7 0.3-1.3 0.1-0.8 0.1-1.6 0-1.1-0.1-2.3-0.2-1.9-0.6-3.7-0.3-1.4-0.7-2.8-0.4 0-0.7 0-0.7 0-1.4 0c-0.3 0-0.6 0-0.8 0-0.3 0-0.5 0-0.7 0-1.8-0.2-3.5-0.4-5.1-0.9q-2.6-0.7-4.9-1.8c-3.8-1.9-6.5-4.3-7.9-7.1q-1.3-2.7-0.8-5c0.2-1.1 0.7-2.1 1.4-2.8q1.2-1.4 3-2 1.7-0.6 3.7-0.7c0.9 0 1.8 0.1 2.9 0.3q2.6 0.5 5.2 1.9c0.9 0.5 1.6 1 2.2 1.5q0.5 0.4 1.1 0.9 0.5 0.5 1 1c1.1 1.1 2.1 2.5 3.2 4.3q1.1 1.8 2 4.1 0.5-0.2 1-0.5 0.4-0.3 0.9-0.6 0.5-0.3 0.9-0.7 0.4-0.3 0.8-0.8c0.2-0.2 0.4-0.5 0.6-0.9 0.2-0.2 0.4-0.6 0.6-0.9 0-0.2 0.2-0.5 0.3-0.8q0-0.3 0.1-0.6 0.1-0.4 0.1-1c0-0.3 0-0.6 0-1q-0.1-1.1-0.4-2.3-0.2-0.9-0.5-1.8-0.4-1-0.8-2-0.4-0.9-0.9-1.8-0.5-0.8-1-1.7-0.4-0.7-0.9-1.4l-0.2-0.3q-0.6-0.8-1.3-1.7-0.6-0.7-1.2-1.4l-0.2-0.2q-0.5-0.6-1.1-1.2-0.6-0.6-1.2-1.1-0.7-0.6-1.5-1.2-0.7-0.5-1.4-1l-0.3-0.2q-1.2-0.8-2.5-1.5-1.3-0.7-2.6-1.3-0.8-0.4-1.6-0.7-0.9-0.3-1.8-0.6-0.8-0.2-1.7-0.5-0.9-0.2-1.8-0.3-0.8-0.1-1.7-0.2-1-0.1-1.9-0.2-1.3 0-2.6 0-1.1 0-2.2 0.1l-0.3-0.9q0 0 0 0l0.1 1q-0.8 0.1-1.7 0.2-0.9 0.1-1.8 0.3-0.7 0.1-1.3 0.3-0.8 0.3-1.6 0.5-0.6 0.2-1.1 0.5-0.6 0.3-1.3 0.6-0.6 0.4-1.3 0.8-0.4 0.4-1 0.8-0.3 0.4-0.8 0.9c-0.1 0.2-0.3 0.5-0.5 0.8-0.1 0.1-0.2 0.3-0.3 0.5q-0.1 0.2-0.2 0.5c0.6 0.4 1.3 0.7 2 1.2 1.2 0.9 2.8 2.1 3.9 3.7q0.9 1.2 1.3 2.6 0.3 0.7 0.4 1.5 0.1 0.6 0.1 1.4c-0.1 0.5-0.2 1.1-0.4 1.7-0.3 0.9-1 1.7-1.8 2.3q-1.2 0.8-2.9 0.9c-1 0.1-2.1-0.1-3.2-0.6-1-0.6-1.9-1.3-2.8-2.3-1-1.1-1.6-2.5-2-3.8q-0.5-1.3-0.7-2.7-0.1-1-0.1-2.1-0.7-0.1-1.4-0.1-0.8-0.1-1.8-0.1-0.8 0.1-1.6 0.1c-0.8 0.1-1.5 0.2-2.2 0.4q-0.9 0.2-1.8 0.5-1 0.4-1.9 0.8-0.9 0.5-1.8 1.1-0.8 0.6-1.6 1.3-0.8 0.8-1.5 1.6-0.9 1-1.7 2.2-0.5 0.8-0.9 1.7-0.4 0.9-0.7 1.9-0.2 0.5-0.4 1.1-0.1 0.6-0.2 1.1c-0.2 1.2-0.3 2.2-0.3 3.1q0 1.3 0 2.6 0.2 1.6 0.5 3 0.3 1.4 0.7 2.5 0.1 0.1 0.2 0.3c0.3 0.6 0.3 1.3 0 2-0.2 0.7-0.8 1.3-1.4 1.6-1.4 0.6-3 0-3.6-1.4-0.3-0.7-0.6-1.4-0.8-2.1-0.2-1-0.4-1.8-0.6-2.6-0.3-1.8-0.5-3.4-0.5-5q0-2.6 0.5-5.2 0.3-1.3 0.7-2.6 0.4-1.3 0.9-2.5c0.7-1.7 1.8-3.2 2.8-4.5 0.5-0.6 1-1.2 1.7-1.9 0.7-0.7 1.3-1.3 1.9-1.7q1-0.8 2.1-1.5 0.6-0.4 1.1-0.7 0.5-0.3 1.1-0.6c1.6-0.7 3.1-1.2 5.2-1.6 0.8-0.2 1.6-0.3 2.4-0.3h0.4q1.3-0.1 2.5-0.1c1 0 1.9 0.1 2.7 0.2q0.1 0 0.3 0 0.1-0.3 0.2-0.6 0.4-1 1-1.9 0.4-0.7 1-1.3 0.3-0.5 0.8-0.9 0.5-0.5 1.1-1 0.5-0.4 1-0.8 0.6-0.4 1.2-0.8c0.8-0.4 1.6-0.8 2.4-1.2q0.6-0.2 1.3-0.5l0.3-0.1q0.5-0.1 0.9-0.2c2-0.6 3.6-0.9 5.1-1.1q1.3-0.2 2.7-0.3 1.1 0 2.2 0h0.5c1.7-0.1 3.4 0.1 5.5 0.3q2.6 0.4 5.2 1.3c1.8 0.6 3.4 1.2 4.9 2 1.6 0.9 3.1 1.8 4.5 2.7 1.7 1.1 3 2.1 4.1 3.1q1.9 1.7 3.6 3.8c1.1 1.2 2.1 2.6 3.1 4.2q1.3 2.1 2.3 4.5c0.6 1.4 1.3 3 1.7 4.8q0.3 1.4 0.4 2.7c0.1 0.8 0.1 1.7 0 2.8q0 0.2-0.1 0.5c-0.1 0.6-0.2 1-0.3 1.5q-0.3 1-0.7 1.8c-0.4 0.7-0.8 1.5-1.4 2.2-0.7 0.9-1.4 1.6-2.1 2.1q-1 0.9-2.4 1.7-0.8 0.5-1.8 0.9 0 0.1 0.1 0.2c0.5 1.9 0.9 3.5 1.1 5.1 0.3 1.9 0.4 3.6 0.3 5.3q0 0.7-0.1 1.3-0.1 0.6-0.2 1.2v0.3q-0.1 0.5-0.2 0.9l-0.1 0.3q-0.1 0.2-0.1 0.4l-0.2 0.4q0 0.3-0.2 0.6c-0.3 1-0.6 1.7-1 2.5-0.4 0.8-0.8 1.6-1.3 2.3l-0.2 0.3c-0.4 0.6-0.9 1.2-1.4 1.8l-0.7 1q-0.4 0.4-0.8 0.8l-0.2 0.3q-0.3 0.3-0.7 0.6l-0.2 0.2q-0.6 0.5-1.1 1c-0.8 0.7-1.5 1.2-2.2 1.7-0.9 0.5-1.6 1-2.3 1.3q-1.2 0.7-2.4 1.1-1.2 0.5-2.4 0.9-1.4 0.3-2.7 0.6c-1.8 0.4-3.5 0.5-5.1 0.6q-2.5 0.1-5-0.1c-1.7-0.1-3.3-0.3-5.4-0.7q-2.4-0.5-4.7-1.4c-0.9-0.4-1.7-0.7-2.4-1.1l-0.3-0.1q-0.6-0.3-1.2-0.7c-0.5 0.5-1 0.9-1.7 1.4q-2.2 1.6-4.5 2.6c-1.7 0.8-3.3 1.4-4.9 1.8-1.5 0.5-3.2 0.8-5 1q-1.2 0.1-2.5 0.1c-0.8 0-1.6 0-2.5 0q-2.7-0.3-5.2-1-2.5-0.7-4.9-2c-1.7-0.9-3.1-1.8-4.3-2.8-0.6-0.5-1.3-1.1-2-1.7q-0.9-1-1.8-2c-1.3-1.4-2.3-2.7-3.2-4q-1.4-2-2.5-4.4c-0.6-1.2-1.4-2.9-2-4.7-1.1-3.4-1.9-6.8-2.3-10.1-0.4-3.2-0.6-6.7-0.4-10.2 0.2-3.9 0.6-7 1.2-9.9 0.5-2.1 0.9-3.7 1.4-5.1 0.6-1.8 1.2-3.4 1.8-4.9 0.7-1.7 1.5-3.4 2.1-4.8q1.1-2.1 2.3-4.2c2.2-3.4 4.1-6.1 6.1-8.5 1.3-1.5 2.4-2.7 3.4-3.8q0.9-0.8 1.8-1.7l0.2-0.1q0.8-0.8 1.7-1.5c3-2.5 5.7-4.3 8.4-5.6q1.2-0.6 2.4-1.2 1-0.5 2-0.9l0.3-0.1q2.2-0.9 4.6-1.7c3-0.9 6.3-1.6 10.1-2.1 3.1-0.4 6.4-0.5 10.1-0.5 3.5 0.1 6.7 0.3 9.8 0.7 3.7 0.5 6.9 1.2 9.8 2.1h0.2q0.4 0.1 0.8 0.3l1.7 0.6q1.2 0.4 2.3 0.9c3.1 1.3 6.1 3 8.9 4.7q2.2 1.3 4.3 2.7c1.3 0.8 2.6 1.8 4.1 3 2.6 1.9 5.2 4.1 7.6 6.5 2.4 2.4 4.6 4.9 6.7 7.4 2.1 2.6 4 5.2 5.9 7.8 3.6 4.9 7.4 10.2 11.4 16.2 1.8 2.6 3.5 5.1 5 7.9 0.9 1.4 1.8 3 1.9 4.8zm-90.6 3.4c0 0.1-0.1 0.2-0.3 0.3q-0.2 0.2-0.5 0.6-0.3 0.4-0.7 0.9-0.3 0.6-0.7 1.2-0.3 0.8-0.5 1.6-0.3 0.9-0.5 1.8-0.1 1.1-0.2 2.3 0 0.7 0 1.6 0.1 0.7 0.3 1.5 0.2 0.6 0.4 1.4 0.2 0.4 0.5 1 0.2 0.4 0.5 0.9c0.3 0.3 0.6 0.7 0.9 1.1q0.1 0.1 0.2 0.2 0.6-0.8 1.2-1.6 0.5-0.8 1-1.7 0.5-1.1 0.9-2.4 0.4-1.3 0.7-2.8 0.1-1 0.2-2.1 0-0.7-0.1-1.5 0-0.7-0.2-1.4-0.1-0.5-0.3-1-0.1-0.2-0.3-0.6-0.1-0.2-0.3-0.5-0.2-0.3-0.5-0.7l-0.4-0.2c-0.1 0-0.2-0.1-0.2-0.1q-0.1 0-0.1 0-0.2 0-0.4 0h-0.3zm2.5-26c0-0.1 0-0.2 0-0.4-0.1-0.1-0.1-0.3-0.2-0.5-0.1-0.1-0.2-0.3-0.3-0.5-0.1-0.1-0.2-0.3-0.3-0.5-0.2-0.2-0.3-0.4-0.5-0.7q-0.3-0.3-0.7-0.7-0.4-0.2-0.7-0.5 0.1 0.6 0.4 1.2 0.1 0.4 0.4 0.9 0.1 0.2 0.3 0.5 0.1 0.1 0.3 0.4 0.1 0.1 0.4 0.4 0.1 0 0.2 0.1 0.1 0.1 0.4 0.2l0.1 0.1q0.1 0 0.2 0zm0.2 0.4h-0.1v0.6zm18.4 7.6l-1.1 0.1 1 0.1v0.4c0 0 0 0.1 0.1 0.3 0 0 0 0.2 0.1 0.3 0.1 0.2 0.2 0.4 0.3 0.7 0.1 0.2 0.3 0.4 0.4 0.7q0.3 0.3 0.6 0.8 0.6 0.5 1.2 1.1 0.5 0.3 1 0.7 1.1 0.7 2.3 1.3 1.3 0.5 2.7 1 1.4 0.5 2.9 0.8 0.9 0.1 1.7 0.2 0.5 0 1 0l0.3 0.1q0.1 0 0.3 0-0.3-0.6-0.6-1.2-0.7-1.2-1.4-2.4-0.4-0.4-0.7-0.9-0.4-0.5-0.9-1-0.5-0.5-1.1-1.1-0.5-0.4-1.2-0.9c-0.2-0.2-0.4-0.3-0.6-0.4q-0.5-0.3-1.1-0.6-0.6-0.2-1.3-0.5-0.3-0.1-0.8-0.2-0.5-0.1-0.9-0.2-0.5-0.1-1.2-0.1c-0.2 0-0.6 0-1 0.1l-0.6 0.1q-0.2 0.1-0.6 0.2-0.1 0-0.2 0.1-0.2 0.1-0.4 0.2l-1-0.3zm-26.5-14.9v-0.1q0 0 0 0 0 0 0 0zm0 0q0 0 0 0 0 0 0 0 0 0 0 0zm0 0q0 0 0 0 0 0 0 0zm28.2 123.7z"/>
		</g>
		<g id="&lt;Group&gt;">
		</g>
		<g id="&lt;Group&gt;">
			<g id="&lt;Group&gt;">
				<g id="&lt;Group&gt;">
					<text id="YOUR SLOGAN HERE
" style="transform: matrix(2,0,0,2,794.193,857.623)" >
						<tspan x="-45.9" y="0" class="t2" dx="0 3 3 3 3 3 3 3 3 3 3 3 3 3 3 3 3" >YOUR SLOGAN HERE
</tspan>
					</text>
				</g>
			</g>
		</g>
	</g>
</svg>